:SAMPLES-PER-SECOND 30
:FULLY-SPECIFIED
:DEGREES
820
root  -64.1094 41.4267 26.9933 176.358 0.388355 178.831
RightUpLeg  -1.81476 -7.78345 -5.12571
RightLeg  7.59265 0.590859 2.66994
RightFoot  -1.69633 0.0335107 -0.531898
RightToes  0.00048216 0.542163 -0.142577
Spine  12.6461 2.7758 6.91578
Spine1  12.9608 6.55307 -9.12215
HEad  -32.074 -10.6311 11.2668
LeftShoulder1  9.22254 -14.3574 -44.9964
LeftArm  -6.26988 16.9184 -24.8254
LeftForeArm  35.7051 -36.1624 -6.06275
LeftHand  -0.25398 0.0180481 5.50724
RightShoulder  2.47126 6.63115 17.825
RightArm  -7.46085 57.9508 52.4807
RightForeArm  166.875 61.7092 161.33
RightHand  -5.98637 15.2274 -33.2017
LeftUpLeg  -0.434742 4.64172 1.53683
LeftLeg  3.80172 16.2367 -3.20943
LeftFoot  -0.253456 -0.142536 1.48453
LeftToes  1.06247e-005 4.65855e-005 -8.18501e-006
821
root  -64.1039 41.4376 26.8303 175.986 0.48424 178.809
RightUpLeg  -1.06146 -7.88436 -5.26455
RightLeg  7.44632 0.826575 2.74518
RightFoot  -1.89283 0.0364898 -0.603437
RightToes  0.00048216 0.542163 -0.142577
Spine  11.3088 2.90032 6.6207
Spine1  13.2164 6.46699 -8.72455
HEad  -33.4502 -10.8929 11.3519
LeftShoulder1  9.21084 -14.3697 -44.9045
LeftArm  -6.0979 17.1565 -24.8114
LeftForeArm  35.7384 -35.5673 -5.90629
LeftHand  -0.25398 0.0180481 5.50724
RightShoulder  2.31154 6.24152 17.1055
RightArm  -8.83763 59.0249 52.1755
RightForeArm  167.45 61.7171 161.38
RightHand  -6.7248 16.8571 -34.4975
LeftUpLeg  0.319109 4.63787 1.53044
LeftLeg  3.66805 16.3236 -3.14942
LeftFoot  -0.468206 -0.130417 1.40019
LeftToes  1.06247e-005 4.65855e-005 -8.18501e-006
822
root  -64.0978 41.4498 26.677 175.709 0.461635 178.817
RightUpLeg  -0.397354 -7.75799 -5.28787
RightLeg  7.24176 0.75163 2.65848
RightFoot  -2.05615 0.0284647 -0.521099
RightToes  0.00048216 0.542163 -0.142577
Spine  10.116 2.96177 6.48423
Spine1  13.2276 6.38297 -8.52834
HEad  -34.9096 -11.3394 11.5222
LeftShoulder1  9.14795 -14.3827 -44.5503
LeftArm  -6.02208 17.4852 -25.0307
LeftForeArm  35.7984 -34.7409 -5.69214
LeftHand  -0.25398 0.0180481 5.50724
RightShoulder  2.18052 5.92906 16.4488
RightArm  -10.7188 59.8944 51.4576
RightForeArm  167.309 61.5658 161.477
RightHand  -6.17771 15.517 -33.7737
LeftUpLeg  0.931664 4.63894 1.55392
LeftLeg  3.55484 16.2662 -3.11068
LeftFoot  -0.658741 -0.11459 1.26838
LeftToes  1.06247e-005 4.65855e-005 -8.18501e-006
823
root  -64.097 41.4569 26.5455 175.443 0.362814 178.839
RightUpLeg  0.18006 -7.60283 -5.26906
RightLeg  7.12708 0.55557 2.51543
RightFoot  -2.23427 0.0151955 -0.380229
RightToes  0.00048216 0.542163 -0.142577
Spine  9.23485 2.95683 6.57477
Spine1  13.01 6.32101 -8.57494
HEad  -36.5799 -12.0763 11.7523
LeftShoulder1  9.10613 -14.4294 -44.2157
LeftArm  -5.9179 17.8008 -25.1316
LeftForeArm  35.6307 -33.73 -5.44932
LeftHand  -0.25398 0.0180481 5.50724
RightShoulder  2.05233 5.68869 15.5848
RightArm  -12.8807 60.5447 50.5866
RightForeArm  167.228 61.2315 161.711
RightHand  -5.77445 14.4754 -33.2656
LeftUpLeg  1.42316 4.64538 1.58384
LeftLeg  3.57389 16.1321 -3.05392
LeftFoot  -0.854122 -0.103439 1.18342
LeftToes  1.06247e-005 4.65855e-005 -8.18501e-006
824
root  -64.1007 41.4556 26.4345 175.114 0.226579 178.834
RightUpLeg  0.703977 -7.60361 -5.32492
RightLeg  7.21513 0.457545 2.42976
RightFoot  -2.46378 0.0113593 -0.357597
RightToes  0.00048216 0.542163 -0.142577
Spine  8.61889 2.92486 6.66896
Spine1  12.75 6.24207 -8.62276
HEad  -38.436 -12.7398 11.9976
LeftShoulder1  9.12895 -14.509 -44.1259
LeftArm  -5.4503 18.0301 -24.8633
LeftForeArm  34.975 -32.5996 -5.21022
LeftHand  -0.25398 0.0180481 5.50724
RightShoulder  1.90233 5.38475 14.5721
RightArm  -14.9249 61.2232 49.7804
RightForeArm  167.084 60.9159 161.922
RightHand  -5.46087 13.5776 -32.9696
LeftUpLeg  1.89108 4.67563 1.59342
LeftLeg  3.70562 15.9611 -3.00466
LeftFoot  -1.05868 -0.101537 1.20211
LeftToes  1.06247e-005 4.65855e-005 -8.18501e-006
825
root  -64.1077 41.4493 26.3327 174.736 0.0565788 178.801
RightUpLeg  1.23414 -7.76129 -5.48113
RightLeg  7.39996 0.512384 2.43214
RightFoot  -2.72778 0.0146321 -0.441007
RightToes  0.00048216 0.542163 -0.142577
Spine  8.13111 2.88447 6.68902
Spine1  12.5183 6.14785 -8.63318
HEad  -40.2959 -13.1568 12.2825
LeftShoulder1  9.17941 -14.6241 -44.0863
LeftArm  -4.5572 18.2437 -24.4824
LeftForeArm  33.9485 -31.377 -4.97564
LeftHand  -0.25398 0.0180481 5.50724
RightShoulder  1.77177 5.08708 13.7191
RightArm  -17.1161 61.9384 48.5466
RightForeArm  166.9 60.7168 162.044
RightHand  -5.16868 12.7069 -32.7227
LeftUpLeg  2.38237 4.72617 1.58538
LeftLeg  3.8677 15.7378 -2.9756
LeftFoot  -1.27048 -0.101699 1.25225
LeftToes  1.06247e-005 4.65855e-005 -8.18501e-006
826
root  -64.1167 41.4414 26.2383 174.329 -0.172883 178.794
RightUpLeg  1.82515 -7.93898 -5.64415
RightLeg  7.52861 0.550731 2.46326
RightFoot  -2.99355 0.0157972 -0.494786
RightToes  0.00048216 0.542163 -0.142577
Spine  7.73213 2.83606 6.66211
Spine1  12.2949 6.03113 -8.58585
HEad  -42.0772 -13.5791 12.505
LeftShoulder1  9.21474 -14.7639 -43.9081
LeftArm  -3.85985 18.525 -24.4128
LeftForeArm  33.1756 -30.1185 -4.72546
LeftHand  -0.25398 0.0180481 5.50724
RightShoulder  1.70059 4.9857 13.0669
RightArm  -19.9527 62.4821 46.4213
RightForeArm  166.555 60.5671 162.115
RightHand  -4.91583 11.9457 -32.513
LeftUpLeg  2.85901 4.76137 1.58199
LeftLeg  4.08961 15.4515 -2.89207
LeftFoot  -1.50256 -0.0999591 1.27311
LeftToes  1.06247e-005 4.65855e-005 -8.18501e-006
827
root  -64.1266 41.4315 26.1588 173.915 -0.414472 178.817
RightUpLeg  2.40955 -8.03779 -5.74306
RightLeg  7.63571 0.471804 2.43958
RightFoot  -3.25931 0.0109817 -0.467556
RightToes  0.00048216 0.542163 -0.142577
Spine  7.44073 2.81172 6.54103
Spine1  12.0979 5.88358 -8.33467
HEad  -43.8514 -13.9048 12.3956
LeftShoulder1  9.27049 -14.9082 -43.8226
LeftArm  -3.88517 18.8493 -24.571
LeftForeArm  33.1415 -28.9461 -4.46183
LeftHand  -0.25398 0.0180481 5.50724
RightShoulder  1.63525 4.93388 12.3445
RightArm  -22.9373 62.91 44.1385
RightForeArm  166.452 60.4709 162.172
RightHand  -4.52608 10.9233 -31.7815
LeftUpLeg  3.2756 4.74829 1.565
LeftLeg  4.39544 15.2005 -2.71135
LeftFoot  -1.75029 -0.0971981 1.28411
LeftToes  1.06247e-005 4.65855e-005 -8.18501e-006
828
root  -64.1337 41.4202 26.0943 173.545 -0.578594 178.805
RightUpLeg  2.85682 -8.08455 -5.81299
RightLeg  7.83194 0.401203 2.33956
RightFoot  -3.53897 0.0044809 -0.417504
RightToes  0.00048216 0.542163 -0.142577
Spine  7.2467 2.84708 6.33363
Spine1  11.9006 5.76205 -7.94339
HEad  -45.66 -13.6373 11.9653
LeftShoulder1  9.39693 -15.0683 -44.0482
LeftArm  -4.01955 19.1753 -24.4669
LeftForeArm  33.4079 -27.9501 -4.22723
LeftHand  -0.25398 0.0180481 5.50724
RightShoulder  1.49826 4.57232 11.4222
RightArm  -25.041 63.5079 42.8335
RightForeArm  167.506 60.4627 162.275
RightHand  -3.62413 8.77725 -29.522
LeftUpLeg  3.65613 4.72334 1.5194
LeftLeg  4.63828 15.059 -2.56145
LeftFoot  -1.97315 -0.0926244 1.27574
LeftToes  1.06247e-005 4.65855e-005 -8.18501e-006
829
root  -64.1358 41.4107 26.0345 173.284 -0.661411 178.727
RightUpLeg  3.12589 -8.15904 -5.91902
RightLeg  8.10948 0.453418 2.23033
RightFoot  -3.82685 0.000383014 -0.401794
RightToes  0.00048216 0.542163 -0.142577
Spine  7.10869 2.90815 6.21255
Spine1  11.5914 5.73671 -7.7753
HEad  -47.4637 -13.1591 11.725
LeftShoulder1  9.54017 -15.2531 -44.291
LeftArm  -3.22065 19.5388 -24.0084
LeftForeArm  33.0544 -27.0853 -4.05743
LeftHand  -0.25398 0.0180481 5.50724
RightShoulder  1.32677 3.98642 10.4952
RightArm  -26.2699 64.2028 42.3763
RightForeArm  167.314 60.3916 162.306
RightHand  -3.4919 8.30035 -29.4045
LeftUpLeg  4.02554 4.75974 1.4764
LeftLeg  4.67768 14.9486 -2.58647
LeftFoot  -2.14176 -0.0842795 1.20815
LeftToes  1.06247e-005 4.65855e-005 -8.18501e-006
830
root  -64.1344 41.4037 25.9761 173.107 -0.76704 178.639
RightUpLeg  3.3082 -8.28439 -6.04367
RightLeg  8.39245 0.505536 2.16858
RightFoot  -4.10231 -0.00190101 -0.412553
RightToes  0.00048216 0.542163 -0.142577
Spine  7.00166 2.91447 6.25019
Spine1  11.1624 5.75944 -7.96126
HEad  -49.0713 -12.9738 11.7954
LeftShoulder1  9.5829 -15.4076 -44.1168
LeftArm  -1.66688 19.9735 -23.7089
LeftForeArm  31.979 -26.2749 -3.93901
LeftHand  -0.25398 0.0180481 5.50724
RightShoulder  1.22783 3.68081 9.80293
RightArm  -27.6291 64.632 41.6128
RightForeArm  166.942 60.1795 162.415
RightHand  -3.51542 8.22538 -29.6903
LeftUpLeg  4.34209 4.84531 1.46201
LeftLeg  4.63852 14.7602 -2.69821
LeftFoot  -2.28349 -0.0750946 1.12224
LeftToes  1.06247e-005 4.65855e-005 -8.18501e-006
831
root  -64.1304 41.3957 25.9273 172.928 -0.960111 178.601
RightUpLeg  3.49756 -8.4003 -6.11351
RightLeg  8.66642 0.383974 2.10813
RightFoot  -4.35644 -0.00493771 -0.401778
RightToes  0.00048216 0.542163 -0.142577
Spine  6.91745 2.85306 6.28128
Spine1  10.7797 5.73552 -8.22295
HEad  -50.6289 -12.7781 12.1423
LeftShoulder1  9.50623 -15.4899 -43.5441
LeftArm  -0.539866 20.4335 -23.9474
LeftForeArm  31.0114 -25.5209 -3.82877
LeftHand  -0.25398 0.0180481 5.50724
RightShoulder  1.22204 3.7804 9.4503
RightArm  -29.5851 64.837 40.0017
RightForeArm  165.412 59.9285 162.444
RightHand  -4.11387 9.57775 -31.572
LeftUpLeg  4.56119 4.88159 1.44335
LeftLeg  4.74506 14.533 -2.67877
LeftFoot  -2.44466 -0.0681906 1.06842
LeftToes  1.06247e-005 4.65855e-005 -8.18501e-006
